<svg xmlns="http://www.w3.org/2000/svg" xmlns:xlink="http://www.w3.org/1999/xlink" width="400" zoomAndPan="magnify" viewBox="0 0 300 299.999988" height="400" preserveAspectRatio="xMidYMid meet" version="1.0"><defs><clipPath id="587d92e160"><path d="M 14.25 0 L 285.75 0 C 289.53125 0 293.152344 1.5 295.828125 4.171875 C 298.5 6.847656 300 10.46875 300 14.25 L 300 285.75 C 300 289.53125 298.5 293.152344 295.828125 295.828125 C 293.152344 298.5 289.53125 300 285.75 300 L 14.25 300 C 10.46875 300 6.847656 298.5 4.171875 295.828125 C 1.5 293.152344 0 289.53125 0 285.75 L 0 14.25 C 0 10.46875 1.5 6.847656 4.171875 4.171875 C 6.847656 1.5 10.46875 0 14.25 0 " clip-rule="nonzero"/></clipPath><clipPath id="5ed67d25b3"><path d="M 30 53.25 L 270 53.25 L 270 246.75 L 30 246.75 Z M 30 53.25 " clip-rule="nonzero"/></clipPath></defs><g clip-path="url(#587d92e160)"><rect x="-30" width="360" fill="#dee2e6" y="-29.999999" height="359.999986" fill-opacity="1"/></g><g clip-path="url(#5ed67d25b3)"><path fill="#008080" d="M 242.511719 80.617188 L 158.015625 80.617188 C 156.785156 80.617188 155.628906 80 154.855469 79 L 144.757812 64.503906 C 139.667969 57.257812 131.421875 52.941406 122.632812 52.941406 L 57.488281 52.941406 C 42.613281 52.941406 30.507812 65.042969 30.507812 79.921875 L 30.507812 219.304688 C 30.507812 234.183594 42.613281 246.289062 57.488281 246.289062 L 242.511719 246.289062 C 257.386719 246.289062 269.492188 234.183594 269.492188 219.304688 L 269.492188 107.597656 C 269.492188 92.722656 257.386719 80.617188 242.511719 80.617188 Z M 242.511719 80.617188 " fill-opacity="1" fill-rule="nonzero"/></g></svg>